<?xml version="1.0" encoding="utf-8"?>
<!-- Generator: Adobe Illustrator 21.1.0, SVG Export Plug-In . SVG Version: 6.00 Build 0)  -->
<svg version="1.1" id="Layer_1" xmlns="http://www.w3.org/2000/svg" xmlns:xlink="http://www.w3.org/1999/xlink" x="0px" y="0px"
	 viewBox="0 0 117 37" style="enable-background:new 0 0 117 37;" xml:space="preserve">
<g>
	<g>
		<path d="M12.2,27.1h2.3v-16h-2.3V27.1z M10.5,11.1H7.6l-5.3,7.5l0-7.6l-2.3,0l0,16h2.3l0-5.2l1.1-1.8l4.8,7h2.6L5,18.7L10.5,11.1z
			 M42.8,19.1c0-8-6.9-8-6.9-8s-6.9,0-6.9,8c0,8,6.9,8,6.9,8S42.8,27.1,42.8,19.1z M31.4,19.1c0-5.6,4.6-5.6,4.6-5.6s4.6,0,4.6,5.6
			c0,5.5-4.6,5.5-4.6,5.5S31.4,24.7,31.4,19.1z M25.7,22.2l-7.1-11.1h-2.3l0,16h2.3l0-11.5l7.2,11.5H28l0-16h-2.3L25.7,22.2z
			 M90.3,23.9c-0.4,0-0.7,0.2-0.9,0.5c-0.5,0.7-0.5,1.6,0,2.3c0.2,0.3,0.6,0.5,0.9,0.5c0.4,0,0.7-0.2,0.9-0.5c0.5-0.7,0.5-1.6,0-2.3
			C90.9,24.1,90.6,24,90.3,23.9z M88.8,11.1l-4.1,13l-4.2-13H78l5.2,16h2.9l5.4-16H88.8z M102.7,20c0.8-0.9,1.2-2.1,1.2-3.7
			c0-1.5-0.2-2.9-1.1-3.8c-0.9-0.9-1.5-1.4-2.9-1.4h-6.2v16h2.3v-5.8h2.3l3.1,5.8h2.6l-3.2-6.2C101.4,20.8,102,20.7,102.7,20z
			 M95.9,18.9v-5.3h3.3c1.6,0,2.4,1.3,2.4,2.8c0,1.3-0.8,2.6-2.4,2.6L95.9,18.9z M117,11.1h-2.3v10.3c0,0,0,3.3-3.5,3.3
			c-3.5,0-3.6-3.3-3.6-3.3V11.1h-2.3v10.3c0,0,0.2,5.7,5.9,5.7c5.7,0,5.8-5.7,5.8-5.7L117,11.1z M66.4,13.6h4l0,13.6h2.3V13.6h4.2
			v-2.5H66.4V13.6z M71.1,30.8c0,0-0.3,4.8-4.9,4.8c-4.4,0-25.5,0-25.5,0s-4.4-0.5-4.4-5.1v-1.3h-1.5v1.2c0,0-0.3,6.6,6.3,6.6h25.1
			c0,0,6.3-0.3,6.3-6.2v-1.7h-1.4L71.1,30.8z M36.4,5.2c0,0,1-3.8,4.6-3.8c4.9,0,25.6,0,25.6,0S71,1.7,71,6.2c0,2.6,0,3.3,0,3.3h1.5
			V6.1c0,0-0.2-6.1-6.3-6.1H40.6c0,0-5.7,0.7-5.7,6.2v3.3h1.5L36.4,5.2z M64.9,5l-19.4,6.5l-0.9,3.4l12-4l-5.3,19l7.3-2L64.9,5z
			 M46.3,31.2l3.7-1l4.9-17.7l-3.7,1.2L46.3,31.2z"/>
	</g>
</g>
</svg>
