<?xml version="1.0" encoding="utf-8"?>
<svg version="1.0" id="Layer_1" xmlns="http://www.w3.org/2000/svg"  x="0px" y="0px"
	 width="30px" height="30px" viewBox="0 0 30 30" style="enable-background:new 0 0 30 30;" xml:space="preserve">
<style type="text/css">
	.st0{fill-rule:evenodd;clip-rule:evenodd;fill:#05519D;}
</style>
<g>
	<g>
		<path class="st0" d="M0,15c0,8.3,6.7,15,15,15s15-6.7,15-15c0-8.3-6.7-15-15-15S0,6.7,0,15z M9,15c0-0.5,0.5-1,0.5-1L17,5.5
			c0,0,0.8-0.7,1.5,0c0.7,0.7,0,1.5,0,1.5l-7,8l7,8c0,0,0.7,0.8,0,1.5c-0.6,0.6-1.5,0-1.5,0L9.5,16C9.5,16,9,15.5,9,15z"/>
	</g>
</g>
</svg>
