<?xml version="1.0" encoding="utf-8"?>
<!-- Generator: Adobe Illustrator 21.0.2, SVG Export Plug-In . SVG Version: 6.00 Build 0)  -->
<svg version="1.0" id="Layer_1" xmlns="http://www.w3.org/2000/svg"  x="0px" y="0px"
	 width="30px" height="30px" viewBox="0 0 30 30" style="enable-background:new 0 0 30 30;" xml:space="preserve">
<style type="text/css">
	.st0{fill-rule:evenodd;clip-rule:evenodd;fill:#05519D;}
</style>
<g>
	<g>
		<path class="st0" d="M15,0C6.7,0,0,6.7,0,15c0,8.3,6.7,15,15,15s15-6.7,15-15C30,6.7,23.3,0,15,0z M20.5,16L13,24.5
			c0,0-0.9,0.6-1.5,0c-0.7-0.7,0-1.5,0-1.5l7-8l-7-8c0,0-0.7-0.8,0-1.5c0.7-0.7,1.5,0,1.5,0l7.5,8.5c0,0,0.5,0.5,0.5,1
			C21,15.5,20.5,16,20.5,16z"/>
	</g>
</g>
</svg>
