<svg version="1.0" xmlns="http://www.w3.org/2000/svg" x="0px" y="0px" width="20px" height="30px" viewBox="0 0 19 18" xml:space="preserve">
<style>
  .st0{fill: #4c82a8;}
</style>
  <g><g><path class="st0" d="M3.5,8C2.7,8,2,8.7,2,9.5C2,10.3,2.7,11,3.5,11C4.3,11,5,10.3,5,9.5C5,8.7,4.3,8,3.5,8z M3.5,10.2
			c-0.4,0-0.7-0.3-0.7-0.7c0-0.4,0.3-0.7,0.7-0.7s0.7,0.3,0.7,0.7C4.2,9.9,3.9,10.2,3.5,10.2z M3.5,12C2.7,12,2,12.7,2,13.5
			C2,14.3,2.7,15,3.5,15C4.3,15,5,14.3,5,13.5C5,12.7,4.3,12,3.5,12z M3.5,14.2c-0.4,0-0.7-0.3-0.7-0.7c0-0.4,0.3-0.7,0.7-0.7
			s0.7,0.3,0.7,0.7C4.2,13.9,3.9,14.2,3.5,14.2z M13.5,4C14,4,14,3,14,3V1c0,0,0-1-0.5-1C13,0,13,1,13,1v2C13,3,13,4,13.5,4z M5.5,4
			C6,4,6,3,6,3V1c0,0,0-1-0.5-1C5,0,5,1,5,1v2C5,3,5,4,5.5,4z M11.5,8C10.7,8,10,8.7,10,9.5c0,0.8,0.7,1.5,1.5,1.5
			c0.8,0,1.5-0.7,1.5-1.5C13,8.7,12.3,8,11.5,8z M11.5,10.2c-0.4,0-0.7-0.3-0.7-0.7c0-0.4,0.3-0.7,0.7-0.7s0.7,0.3,0.7,0.7
			C12.2,9.9,11.9,10.2,11.5,10.2z M15.5,8C14.7,8,14,8.7,14,9.5c0,0.8,0.7,1.5,1.5,1.5c0.8,0,1.5-0.7,1.5-1.5C17,8.7,16.3,8,15.5,8z
			 M17,2c-0.1,0-2,0-2,0s1,3-1.5,3C11,5,12,2,12,2H7c0,0,1,3-1.6,3C3,5,4,2,4,2S2.2,2,2,2C1,2,0,3,0,4c0,1,0,10.8,0,12c0,1,1,2,2,2
			c1,0,13.7,0,15,0c1,0,2-1,2-2c0-0.8,0-11,0-12C19,3,18,2,17,2z M18,15c0,1-1,2-2,2c-1.1,0-12.2,0-13,0c-1,0-2-1-2-2
			c0-0.9,0-6.2,0-7c0-1,0-2,1-2c0.8,0,14.3,0,15,0c1,0,1,1,1,2C18,8.8,18,14.3,18,15z M7.5,12C6.7,12,6,12.7,6,13.5
			C6,14.3,6.7,15,7.5,15C8.3,15,9,14.3,9,13.5C9,12.7,8.3,12,7.5,12z M7.5,14.2c-0.4,0-0.7-0.3-0.7-0.7c0-0.4,0.3-0.7,0.7-0.7
			s0.7,0.3,0.7,0.7C8.2,13.9,7.9,14.2,7.5,14.2z M7.5,8C6.7,8,6,8.7,6,9.5C6,10.3,6.7,11,7.5,11C8.3,11,9,10.3,9,9.5
			C9,8.7,8.3,8,7.5,8z M7.5,10.2c-0.4,0-0.7-0.3-0.7-0.7c0-0.4,0.3-0.7,0.7-0.7s0.7,0.3,0.7,0.7C8.2,9.9,7.9,10.2,7.5,10.2z
			 M11.5,12c-0.8,0-1.5,0.7-1.5,1.5c0,0.8,0.7,1.5,1.5,1.5c0.8,0,1.5-0.7,1.5-1.5C13,12.7,12.3,12,11.5,12z M11.5,14.2
			c-0.4,0-0.7-0.3-0.7-0.7c0-0.4,0.3-0.7,0.7-0.7s0.7,0.3,0.7,0.7C12.2,13.9,11.9,14.2,11.5,14.2z"/>
</g></g></svg>
