
<svg width="30px" height="30px" viewBox="0 0 30 30" version="1.1" xmlns="http://www.w3.org/2000/svg" xmlns:xlink="http://www.w3.org/1999/xlink">
    <!-- Generator: Sketch 42 (36781) - http://www.bohemiancoding.com/sketch -->
    <path d="M15,29.5 C6.99187113,29.5 0.5,23.0081289 0.5,15 C0.5,6.99187113 6.99187113,0.5 15,0.5 C23.0081289,0.5 29.5,6.99187113 29.5,15 C29.5,23.0081289 23.0081289,29.5 15,29.5 Z M15,28.5 C22.4558441,28.5 28.5,22.4558441 28.5,15 C28.5,7.54415588 22.4558441,1.5 15,1.5 C7.54415588,1.5 1.5,7.54415588 1.5,15 C1.5,22.4558441 7.54415588,28.5 15,28.5 Z" id="Oval" stroke="#1F7AC2" stroke-width="1" fill="#1F7AC2" fill-rule="nonzero"></path>
    <path d="M16.53125,8.51953125 C16.53125,8.9101582 16.402345,10.2226451 16.1445312,12.4570312 C15.8867175,14.6914174 15.6601572,16.8515521 15.4648438,18.9375 L14.5507812,18.9375 C14.3789054,16.8515521 14.1660169,14.6914174 13.9121094,12.4570312 C13.6582019,10.2226451 13.53125,8.9101582 13.53125,8.51953125 C13.53125,8.07421652 13.6718736,7.69922027 13.953125,7.39453125 C14.2343764,7.08984223 14.5937478,6.9375 15.03125,6.9375 C15.4687522,6.9375 15.8281236,7.08788912 16.109375,7.38867188 C16.3906264,7.68945463 16.53125,8.06640398 16.53125,8.51953125 Z M16.6367188,22.6523438 C16.6367188,23.0898459 16.4785172,23.4628891 16.1621094,23.7714844 C15.8457015,24.0800797 15.4687522,24.234375 15.03125,24.234375 C14.5937478,24.234375 14.2167985,24.0800797 13.9003906,23.7714844 C13.5839828,23.4628891 13.4257812,23.0898459 13.4257812,22.6523438 C13.4257812,22.2148416 13.5839828,21.8378922 13.9003906,21.5214844 C14.2167985,21.2050765 14.5937478,21.046875 15.03125,21.046875 C15.4687522,21.046875 15.8457015,21.2050765 16.1621094,21.5214844 C16.4785172,21.8378922 16.6367188,22.2148416 16.6367188,22.6523438 Z" id="!" stroke="none" fill="#1F7AC2" fill-rule="evenodd"></path>
</svg>