<?xml version="1.0" encoding="utf-8"?>
<!-- Generator: Adobe Illustrator 19.1.0, SVG Export Plug-In . SVG Version: 6.00 Build 0)  -->
<svg version="1.0" id="Layer_2" xmlns="http://www.w3.org/2000/svg" xmlns:xlink="http://www.w3.org/1999/xlink" x="0px" y="0px"
	 viewBox="0 0 34 34" style="enable-background:new 0 0 34 34;" xml:space="preserve">
<style type="text/css">
	.st0{fill-rule:evenodd;clip-rule:evenodd;fill:#0757A8;}
</style>
<path class="st0" d="M33,0H1L0,1v32l1,1h32l1-1V1L33,0z M24,24H10c0,0-1,0-1-1c0-1,1-1,1-1h14c0,0,1,0,1,1C25,24,24,24,24,24z
	 M24,18H10c0,0-1,0-1-1c0-1,1-1,1-1h14c0,0,1,0,1,1C25,18,24,18,24,18z M24,12H10c0,0-1,0-1-1c0-1,1-1,1-1h14c0,0,1,0,1,1
	C25,12,24,12,24,12z"/>
</svg>
