<?xml version="1.0" encoding="utf-8"?>
<!-- Generator: Adobe Illustrator 19.1.0, SVG Export Plug-In . SVG Version: 6.00 Build 0)  -->
<svg version="1.0" id="Layer_1" xmlns="http://www.w3.org/2000/svg" xmlns:xlink="http://www.w3.org/1999/xlink" x="0px" y="0px"
	 viewBox="0 0 34 34" style="enable-background:new 0 0 34 34;" xml:space="preserve">
<style type="text/css">
	.st0{fill-rule:evenodd;clip-rule:evenodd;fill:#0757A8;}
</style>
<g>
	<g>
		<path class="st0" d="M33,0H1L0,1v32l1,1h32l1-1V1L33,0z M32,32H2V2h30V32z M10,12h14c0,0,1,0,1-1c0-1-1-1-1-1H10c0,0-1,0-1,1
			C9,12,10,12,10,12z M10,18h14c0,0,1,0,1-1c0-1-1-1-1-1H10c0,0-1,0-1,1C9,18,10,18,10,18z M10,24h14c0,0,1,0,1-1c0-1-1-1-1-1H10
			c0,0-1,0-1,1C9,24,10,24,10,24z"/>
	</g>
</g>
</svg>
