<svg width="70" height="10" viewBox="0 0 70 10" fill="none" xmlns="http://www.w3.org/2000/svg">
<rect width="70" height="10" rx="5" fill="white"/>
<path d="M9.4427 2H10.6705L9.64868 8H8.46127L9.12767 4.09341L6.22376 8H5L6.02182 2H7.20519L6.53879 5.91071L9.4427 2Z" fill="black"/>
<path d="M16.1827 8H14.9993L15.4355 5.42857H13.1536L12.7133 8H11.53L12.5518 2H13.7352L13.3192 4.43132H15.6051L16.0171 2H17.2005L16.1827 8Z" fill="black"/>
<path d="M23.0963 3.00137H21.3516L20.5034 8H19.32L20.1682 3.00137H18.4436L18.6173 2H23.27L23.0963 3.00137Z" fill="black"/>
<path d="M27.6634 5.39973H25.4098L25.1351 7.00687H27.7846L27.615 8H23.7821L24.8039 2H28.6287L28.455 3.00137H25.8177L25.5713 4.43132H27.833L27.6634 5.39973Z" fill="black"/>
<path d="M30.7119 5.88599L30.3484 8H29.1651L30.1869 2L32.2467 2.00412C32.8821 2.00412 33.3816 2.18407 33.7451 2.54396C34.1086 2.90385 34.2674 3.37363 34.2217 3.9533C34.1786 4.54121 33.9376 5.01099 33.4987 5.36264C33.0625 5.71429 32.5052 5.89011 31.8266 5.89011L30.7119 5.88599ZM30.8775 4.88462L31.863 4.89286C32.1807 4.89286 32.4446 4.80907 32.6546 4.64148C32.8646 4.4739 32.9898 4.24725 33.0302 3.96154C33.0706 3.67582 33.0248 3.4478 32.8929 3.27747C32.7636 3.10714 32.5711 3.01648 32.3153 3.00549L31.2006 3.00137L30.8775 4.88462Z" fill="black"/>
<path d="M37.9487 6.76374H35.897L35.2911 8H33.9866L37.1288 2H38.2233L39.3421 8H38.1345L37.9487 6.76374ZM36.3816 5.76236H37.7992L37.4681 3.52885L36.3816 5.76236Z" fill="black"/>
<path d="M43.0812 5.54808H42.3744L41.9544 8H40.771L41.7928 2H42.9762L42.5642 4.40247H43.057L44.8623 2H46.3809L44.0869 4.9011L45.4843 8H44.1313L43.0812 5.54808Z" fill="black"/>
<path d="M51.9658 3.00137H50.221L49.3729 8H48.1895L49.0377 3.00137H47.3131L47.4867 2H52.1395L51.9658 3.00137Z" fill="black"/>
<path d="M57.0539 2H58.2817L57.2599 8H56.0725L56.7389 4.09341L53.835 8H52.6112L53.633 2H54.8164L54.15 5.91071L57.0539 2Z" fill="black"/>
<path d="M59.1412 8L60.163 2L61.9966 2.00412C62.6778 2.00687 63.1894 2.14835 63.5314 2.42857C63.8733 2.70879 64.0281 3.10302 63.9958 3.61126C63.9581 4.21841 63.6148 4.66209 62.9659 4.94231C63.2002 5.02473 63.3819 5.17995 63.5112 5.40797C63.6404 5.63324 63.6956 5.89973 63.6768 6.20742C63.6391 6.77335 63.421 7.21429 63.0225 7.53022C62.6267 7.84341 62.0855 8 61.3989 8H59.1412ZM60.7728 5.38736L60.4942 7.00687L61.4271 7.01099C61.7179 7.01099 61.9616 6.93819 62.1582 6.79258C62.3547 6.64423 62.4718 6.44506 62.5095 6.19506C62.5472 5.9478 62.5136 5.75549 62.4086 5.61813C62.3062 5.47802 62.1326 5.40247 61.8876 5.39148L60.7728 5.38736ZM60.9182 4.51374L61.722 4.52198C62.0208 4.51648 62.2645 4.44505 62.453 4.30769C62.6442 4.17033 62.7586 3.9794 62.7963 3.73489C62.8636 3.25137 62.6145 3.00824 62.0491 3.00549L61.1767 3.00137L60.9182 4.51374Z" fill="black"/>
</svg>
