<?xml version="1.0" encoding="utf-8"?>
<!-- Generator: Adobe Illustrator 22.1.0, SVG Export Plug-In . SVG Version: 6.00 Build 0)  -->
<svg version="1.0" id="Layer_1" xmlns="http://www.w3.org/2000/svg" xmlns:xlink="http://www.w3.org/1999/xlink" x="0px" y="0px"
	 width="94px" height="16px" viewBox="0 0 94 16" style="enable-background:new 0 0 94 16;" xml:space="preserve">
<style type="text/css">
	.st0{fill-rule:evenodd;clip-rule:evenodd;fill:#F44B4B;}
	.st1{fill:#FFFFFF;}
</style>
<path class="st0" d="M1,0L0,1v14l1,1h92l1-1V1l-1-1H1z"/>
<g>
	<path class="st1" d="M5.4,3.6h1.9L5.8,9.3l5.3-5.7h1.8l-2.3,8.8H8.7l1.5-5.7l-5.3,5.7H3.1L5.4,3.6z"/>
	<path class="st1" d="M15,3.6H17L16,7h3.5l0.9-3.5h1.9l-2.4,8.8h-1.9l1-3.5h-3.5l-1,3.5h-1.9L15,3.6z"/>
	<path class="st1" d="M25.9,5.3h-2.7l0.5-1.8H31l-0.5,1.8h-2.7l-1.9,7H24L25.9,5.3z"/>
	<path class="st1" d="M32.3,3.6h6.6l-0.5,1.7h-4.6l-0.5,1.8h4.1l-0.5,1.7h-4.1l-0.5,1.9H37l-0.5,1.7h-6.6L32.3,3.6z"/>
	<path class="st1" d="M40.6,3.6h2.8c1.3,0,2.1,0.3,2.8,0.9c0.5,0.5,0.7,1,0.7,1.8c0,2.2-1.9,3.4-4.3,3.4h-1.7l-0.7,2.7h-1.9
		L40.6,3.6z M42.7,8c1.3,0,2.1-0.6,2.1-1.6c0-0.3-0.1-0.5-0.3-0.7c-0.3-0.3-0.6-0.4-1.2-0.4h-1.3L41.4,8H42.7z"/>
	<path class="st1" d="M51.4,3.5h1.9l1.4,8.8h-2l-0.3-2h-3.7l-1.3,2h-2.1L51.4,3.5z M52.2,8.7l-0.4-2.9l-1.9,2.9H52.2z"/>
	<path class="st1" d="M58.1,3.6H60l-1,3.9l4.3-3.9h2.6l-4.3,3.7l2.1,5.1h-2.1l-1.5-4l-1.8,1.6l-0.6,2.4h-1.9L58.1,3.6z"/>
	<path class="st1" d="M68.6,5.3h-2.7l0.5-1.8h7.3l-0.5,1.8h-2.7l-1.9,7h-1.9L68.6,5.3z"/>
	<path class="st1" d="M75,3.6h1.9l-1.5,5.7l5.3-5.7h1.8l-2.3,8.8h-1.9l1.5-5.7l-5.3,5.7h-1.8L75,3.6z"/>
	<path class="st1" d="M84.6,3.6H88c2.1,0,3,1,3,2.2c0,1.2-0.8,1.9-1.9,2.2c0.7,0.3,1.2,0.9,1.2,1.8c0,1.6-1.3,2.7-3.8,2.7h-4.3
		L84.6,3.6z M86.8,10.6c1,0,1.6-0.4,1.6-1.1c0-0.5-0.4-0.8-1.2-0.8h-2.1l-0.5,1.9H86.8z M87.5,7.1c1,0,1.6-0.3,1.6-1.1
		c0-0.5-0.4-0.8-1.2-0.8H86l-0.5,1.9H87.5z"/>
</g>
</svg>
