<?xml version="1.0" encoding="utf-8"?>
<!-- Generator: Adobe Illustrator 19.1.0, SVG Export Plug-In . SVG Version: 6.00 Build 0)  -->
<svg version="1.0" id="Layer_1" xmlns="http://www.w3.org/2000/svg" xmlns:xlink="http://www.w3.org/1999/xlink" x="0px" y="0px"
	 viewBox="0 0 82 82" style="enable-background:new 0 0 82 82;" xml:space="preserve">
<style type="text/css">
	.st0{fill-rule:evenodd;clip-rule:evenodd;fill:#FFFFFF;}
</style>
<g>
	<g>
		<path class="st0" d="M41,1C18.9,1,1,18.9,1,41c0,22.1,17.9,40,40,40c22.1,0,40-17.9,40-40C81,18.9,63.1,1,41,1z M41,77
			C21.1,77,5,60.9,5,41C5,21.1,21.1,5,41,5c19.9,0,36,16.1,36,36C77,60.9,60.9,77,41,77z M31,22v38l1,1l29-19v-2L32,21L31,22z"/>
	</g>
</g>
</svg>
