<?xml version="1.0" encoding="utf-8"?>
<!-- Generator: Adobe Illustrator 19.1.0, SVG Export Plug-In . SVG Version: 6.00 Build 0)  -->
<svg version="1.0" id="Layer_1" xmlns="http://www.w3.org/2000/svg" xmlns:xlink="http://www.w3.org/1999/xlink" x="0px" y="0px"
	 viewBox="0 0 20 20" style="enable-background:new 0 0 20 20;" xml:space="preserve">
<style type="text/css">
	.st0{fill-rule:evenodd;clip-rule:evenodd;fill:#FFFFFF;}
</style>
<g>
	<g>
		<path class="st0" d="M10,0C4.5,0,0,4.5,0,10c0,5.5,4.5,10,10,10c5.5,0,10-4.5,10-10C20,4.5,15.5,0,10,0z M10,18.3
			c-4.6,0-8.3-3.7-8.3-8.3S5.4,1.7,10,1.7c4.6,0,8.3,3.7,8.3,8.3S14.6,18.3,10,18.3z M8.5,6.5L11,9H5v2h6l-2.5,2.5L10,15l5-5l-5-5
			L8.5,6.5z"/>
	</g>
</g>
</svg>
