<?xml version="1.0" encoding="utf-8"?>
<!-- Generator: Adobe Illustrator 21.1.0, SVG Export Plug-In . SVG Version: 6.00 Build 0)  -->
<svg version="1.1" id="Layer_1" xmlns="http://www.w3.org/2000/svg" xmlns:xlink="http://www.w3.org/1999/xlink" x="0px" y="0px"
	 viewBox="0 0 20 20" style="enable-background:new 0 0 20 20;" xml:space="preserve">
<style type="text/css">
	.st0{fill:#0757A8;}
</style>
<path class="st0" d="M0.4,9.6L5,11.4l1.8,5.9c0.1,0.4,0.6,0.5,0.9,0.3l2.6-2.2c0.3-0.2,0.7-0.2,0.9,0l4.6,3.5c0.3,0.2,0.8,0.1,0.9-0.3L20,1.7
	c0.1-0.4-0.3-0.8-0.7-0.6L0.3,8.6C-0.1,8.8-0.1,9.4,0.4,9.6L0.4,9.6z M6.5,10.5l9-5.7c0.2-0.1,0.3,0.1,0.2,0.3l-7.4,7.1
	c-0.3,0.3-0.4,0.6-0.5,1L7.5,15c0,0.3-0.4,0.3-0.5,0l-1-3.5C6,11.1,6.1,10.7,6.5,10.5L6.5,10.5z M6.5,10.5"/>
</svg>
