<svg 
 xmlns="http://www.w3.org/2000/svg"
 xmlns:xlink="http://www.w3.org/1999/xlink"
 width="22px" height="23px">
<path fill-rule="evenodd"  fill="rgb(255, 255, 255)"
 d="M20.000,23.000 C19.359,23.000 2.641,23.000 2.000,23.000 C1.105,23.000 -0.000,21.940 -0.000,21.001 C-0.000,20.357 -0.000,9.644 -0.000,9.000 C-0.000,8.029 1.018,7.000 2.000,7.000 C2.641,7.000 8.511,7.000 8.511,7.000 L6.000,3.000 C6.000,3.000 5.162,1.568 6.000,1.000 C6.818,0.446 8.000,2.001 8.000,2.001 L11.000,7.000 L14.000,2.001 C14.000,2.001 15.223,0.567 16.000,1.000 C16.876,1.489 16.000,3.000 16.000,3.000 L13.592,7.000 C13.592,7.000 19.359,7.000 20.000,7.000 C20.911,7.000 22.000,8.089 22.000,9.000 C22.000,9.644 22.000,20.357 22.000,21.001 C22.000,21.924 20.913,23.000 20.000,23.000 ZM20.000,10.000 L19.000,9.000 L3.000,9.000 L2.000,10.000 L2.000,20.001 L3.000,21.001 L19.000,21.001 L20.000,20.001 L20.000,10.000 ZM9.000,19.000 L9.000,11.000 L10.000,11.000 L14.000,15.000 L10.000,19.000 L9.000,19.000 Z"/>
</svg>