<?xml version="1.0" encoding="utf-8"?>
<!-- Generator: Adobe Illustrator 19.1.0, SVG Export Plug-In . SVG Version: 6.00 Build 0)  -->
<svg version="1.0" id="Layer_1" xmlns="http://www.w3.org/2000/svg" xmlns:xlink="http://www.w3.org/1999/xlink" x="0px" y="0px"
	 viewBox="0 0 28 28" style="enable-background:new 0 0 28 28;" xml:space="preserve">
<style type="text/css">
	.st0{fill-rule:evenodd;clip-rule:evenodd;fill:#0757A8;}
	.st1{fill-rule:evenodd;clip-rule:evenodd;fill:#FFFFFF;}
</style>
<path class="st0" d="M14,0c7.7,0,14,6.3,14,14c0,7.7-6.3,14-14,14S0,21.7,0,14C0,6.3,6.3,0,14,0z"/>
<path class="st1" d="M14,4c5.5,0,10,4.5,10,10c0,5.5-4.5,10-10,10S4,19.5,4,14C4,8.5,8.5,4,14,4z"/>
<path class="st0" d="M10,17l4-4l4,4l1-1l-5-5l-5,5L10,17z"/>
</svg>
